<?xml version="1.0" standalone="no"?><!DOCTYPE svg PUBLIC "-//W3C//DTD SVG 1.1//EN" "http://www.w3.org/Graphics/SVG/1.1/DTD/svg11.dtd"><svg t="1758719045003" class="icon" viewBox="0 0 1024 1024" version="1.1" xmlns="http://www.w3.org/2000/svg" p-id="7087" xmlns:xlink="http://www.w3.org/1999/xlink" width="144" height="144"><path d="M650.156252 237.087415L578.954963 250.834551l4.739447 35.586946 7.270805 43.186499 35.992402-25.061538z" fill="#8F8F8F" p-id="7088"></path><path d="M570.511624 204.240033l19.724867 53.531096 59.919761-20.683714z" fill="#DDDDDC" p-id="7089"></path><path d="M598.592163 374.816294L612.416007 386.081384l29.236635 5.944856 25.549182-54.407756L626.49737 351.212204z" fill="#8F8F8F" p-id="7090"></path><path d="M626.963096 304.540978h-48.002654l19.6372 70.269837L667.207303 337.618484z" fill="#C4C4C4" p-id="7091"></path><path d="M331.34762 351.212204l-58.780102 16.103162-17.149676 44.87955 35.37874 6.498247 45.158986-38.299115z" fill="#C4C4C4" p-id="7092"></path><path d="M323.720671 310.228315L242.02685 331.651711l30.540668 35.663655 55.58029 10.498012 16.17987-26.601174z" fill="#8F8F8F" p-id="7093"></path><path d="M323.950795 251.393422l-16.152474 3.479247-12.317083-15.741539L242.02685 331.651711l83.534809-11.544526z" fill="#DDDDDC" p-id="7094"></path><path d="M370.161773 389.998962L255.417842 412.194916l24.656083 18.25098 98.481875-16.103161z" fill="#8F8F8F" p-id="7095"></path><path d="M767.321958 394.48089l21.83981-19.275578 18.870122-32.10222-1.402657-73.327191-43.882348 44.594636-12.930746 51.279173z" fill="#8A6651" p-id="7096"></path><path d="M882.783655 135.498874l-6.761246 4.991487-30.135213 53.37768-12.519811 17.714026 3.177895 35.943089-28.491473 19.253662 4.273721 14.103279-17.642797 41.011285-16.409993 10.70074-19.253662 42.189297 30.135213 0.410935L822.266669 281.353302l30.491356-25.625889-1.178013-44.928862z" fill="#35785D" p-id="7097"></path><path d="M798.377664 330.501094l13.922468-49.613518-4.268242-14.103279-29.77359 65.815304z" fill="#53AF8A" p-id="7098"></path><path d="M876.027888 140.490361l6.761246-4.991487-11.33084 0.87666-38.107346 75.206533 15.692227-9.188501z" fill="#53AF8A" p-id="7099"></path><path d="M741.137198 332.599601l11.467818-39.400421 48.386193-31.411849 7.040681 4.991487-9.654226 20.891921-20.01526 17.533214-0.104104 27.395648-8.49813 18.62904-19.922115 14.437507z" fill="#DFBCA4" p-id="7100"></path><path d="M836.983611 268.981428l-3.632663 82.356796-44.18918 23.883526 18.848206-108.442932z" fill="#C3977A" p-id="7101"></path><path d="M776.62552 445.705272l-48.28209-97.720275-41.422219 51.843523-46.134271 96.103933z" fill="#738D56" p-id="7102"></path><path d="M598.597642 374.816294l-5.890064 56.550096 62.264828 51.257257 31.948805-82.767731z" fill="#99C26C" p-id="7103"></path><path d="M608.043662 507.044127l88.115361 13.489617 53.69547-37.915576 14.695025-44.419303-109.582591 44.419303-46.928744-49.739538-75.107908-77.622828z" fill="#5A753C" p-id="7104"></path><path d="M741.137198 332.599601l-12.799247 15.412791 36.200609 90.191952-68.379537 82.3294 19.965948 1.791676 71.836868-79.080277z" fill="#35785D" p-id="7105"></path><path d="M575.064781 518.309218l45.602795-5.736649-16.935989-77.661182z" fill="#738D56" p-id="7106"></path><path d="M372.63834 441.327448l-25.445078-3.835391-67.124816-7.046161 89.627601 72.32451 6.322916 21.248065 40.890744 83.227977 55.015939-53.657115z" fill="#738D56" p-id="7107"></path><path d="M338.311593 536.839634l29.642091 51.969544 31.028311 13.927947 22.349369-31.822785-45.285005-78.899465z" fill="#446024" p-id="7108"></path><path d="M455.301967 437.453703l114.075478 119.187505 3.402539-175.375979c-1.917695-1.287595-80.022687-6.810558-80.022687-6.810558a117.576641 117.576641 0 0 0-20.77138 23.697236 118.124554 118.124554 0 0 0-16.68395 39.301796z" fill="#53AF8A" p-id="7109"></path><path d="M452.129551 398.135469l-8.218694 34.737682-77.009166 34.17881 116.952021 81.233574 0.717765 1.002681 77.031083-26.37105z" fill="#53AF8A" p-id="7110"></path><path d="M346.119353 460.931773l20.787817 6.120188 91.008342-34.17881-129.767704-55.065252-37.351226 40.885264z" fill="#71C8A6" p-id="7111"></path><path d="M528.601763 345.218036l-0.153416-0.306831-0.536955 0.383539z" fill="#35785D" p-id="7112"></path><path d="M476.24868 536.505407l-185.479494-117.801285-10.70074 11.741774 191.879117 123.137958 70.680771 91.64392 38.529239-122.294171z" fill="#35785D" p-id="7113"></path><path d="M452.129551 398.140948l-42.55092-29.083219L331.34762 351.212204l-3.199812 26.601174 129.767704 55.065252z" fill="#35785D" p-id="7114"></path><path d="M458.129198 430.566437l39.734648-54.424194-15.341563-39.159339-23.834213 37.460809q-0.273956 28.07506-0.558872 56.122724z" fill="#35785D" p-id="7115"></path><path d="M166.760047 996.450937l253.393304 27.543584 393.154941-31.28583-372.95339-27.313461z" fill="#2B2B2B" opacity=".1" p-id="7116"></path><path d="M492.658673 924.586674v34.9952l43.213894-13.336201 24.55198-18.661916 8.037883-31.488557z" fill="#35785D" p-id="7117"></path><path d="M307.003847 893.098116l-12.980058 66.664569 37.400539-0.180811 35.482842-22.464431 7.961176-16.771616z" fill="#35785D" p-id="7118"></path><path d="M560.419068 927.583757l-67.765874 32.025513v18.179751l57.497985 4.832593 70.582147-4.838072z" fill="#53AF8A" p-id="7119"></path><path d="M492.658673 977.756147h128.080132v17.30857H492.658673z" fill="#35785D" p-id="7120"></path><path d="M366.90717 937.128401l15.768935 50.227181-44.380949 8.651545-50.588803-8.651545 6.290041-27.598376z" fill="#53AF8A" p-id="7121"></path><path d="M287.72279 987.361061h94.953315v17.30857H287.72279z" fill="#35785D" p-id="7122"></path><path d="M621.073032 508.271452l-4.333992 6.366749-127.871925 187.988935-67.557667-131.74567-53.37768 17.933191-101.199523 281.786153L403.491318 953.368541l0.487643 0.356143 226.819526-89.309811z" fill="#738D56" p-id="7123"></path><path d="M573.355293 522.939082l-44.748051 78.159783-22.815096-20.45359-33.839104-27.061421-50.638115 17.330486-15.516895 363.403268 202.24563-427.273481-32.973402 11.259612z" fill="#99C26C" p-id="7124"></path><path d="M405.798032 934.317608l-139.065787-63.722277-6.142104 19.379681 142.901177 63.38805 0.487643 0.356143 227.36196-68.253516-0.547913-21.017941z" fill="#35785D" p-id="7125"></path><path d="M618.996442 505.01137l-56.374764 1.057472s-4.054556 74.077831-5.013404 75.036679 63.042865-6.399623 63.042865-6.399623z" fill="#728C56" p-id="7126"></path><path d="M228.99748 663.69792l-26.371051 30.387253-11.056883 12.749934 14.130675 13.084161 34.639057-47.849238z" fill="#C3977A" p-id="7127"></path><path d="M202.626429 614.643273l-33.740479 12.749935-13.697824 29.751673 17.385278 40.781161 18.990663 8.909065V706.807711l26.677882-27.395647z" fill="#DFBCA4" p-id="7128"></path><path d="M230.301513 662.213076l-50.04637-59.470472-11.369193 24.656083 49.383394 52.018856 10.728136-15.719623z" fill="#8A6651" p-id="7129"></path><path d="M191.569546 706.829628l-36.408816-49.690226L141.210866 705.476283l22.963032 33.225442 27.395648-31.899493z" fill="#C3977A" p-id="7130"></path><path d="M280.073925 430.445896L176.644397 567.944652l124.726905 19.01258 49.103959-119.888834z" fill="#99C26C" p-id="7131"></path><path d="M176.644397 567.950131l49.640914 99.588659 28.031226-9.698059 92.876725-185.742492z" fill="#738D56" p-id="7132"></path><path d="M350.475261 467.05744l-124.18995 190.087441 45.032965-3.380623 25.856013-15.620998 78.850153-146.122906z" fill="#5A753C" p-id="7133"></path><path d="M218.291261 679.417543l66.796068-22.272662 12.103397-19.023538-70.905415 19.023538-49.635435-89.19475-12.601998 16.536013z" fill="#35785D" p-id="7134"></path><path d="M603.660358 336.00214l-42.594753-248.599065-70.735562-54.506381-44.928863 37.964888-93.238347-6.120187-16.229182 14.793649 33.74048 65.870096L427.659759 384.21848l85.271693-23.505465z" fill="#DFBCA4" p-id="7135"></path><path d="M490.324564 47.08216l70.762958 40.320915-42.189298-56.298057-34.715765-10.163785-7.2982 11.944503z" fill="#EBEBEB" p-id="7136"></path><path d="M414.520806 53.196869l38.501844 34.206206 37.301914-40.320915-6.142105-26.135448L412.833234 0z" fill="#DDDDDC" p-id="7137"></path><path d="M344.892028 53.196869l0.739682 8.344714 5.764045 4.728489 101.500875 21.259022 0.131499-0.126019L412.838713 0z" fill="#C4C4C4" p-id="7138"></path><path d="M377.580515 108.064872l-25.395766-43.317998-41.833154 71.228684 20.990546 24.267065 4.607948 63.875692-18.968747-21.297377-13.796448 20.913838-23.116448 8.552921 19.01258 55.443312 19.560492-4.887384 12.722539 2.558754-5.785961 34.715765 5.785961 31.105018 83.178666 32.326864 15.412791 1.051993z" fill="#C3977A" p-id="7139"></path><path d="M318.625081 282.838146l6.931099 37.274519 18.492062-44.112472z" fill="#8A6651" p-id="7140"></path><path d="M295.481238 239.136609l32.66657 21.867206-8.602233-29.64757z" fill="#8A6651" p-id="7141"></path><path d="M469.794265 372.619163l-55.300854 10.903468 42.035881 16.333285z" fill="#8A6651" p-id="7142"></path><path d="M268.496525 113.768646l34.688369 109.982567 11.084279-3.96141 23.631486 13.697823 6.810558-86.630517-27.203878-15.9881 34.67741-66.138573-7.281763-11.533567z" fill="#8F8F8F" p-id="7143"></path><path d="M476.24868 536.505407l-185.479494-117.801285-10.70074 11.741774 191.879117 123.137958 70.680771 91.64392 38.529239-122.294171z" fill="#35785D" opacity=".99" p-id="7144"></path><path d="M500.444516 257.771129L438.053668 313.915769l38.222407 222.600596 70.045192 64.478397 5.35311 9.50081-2.427254 9.44602-6.607831 25.291662 38.353907 26.650486-25.603972-272.027824-36.430732-138.074065z" fill="#C4C4C4" p-id="7145"></path><path d="M588.329754 594.573222L621.073032 508.298848l-37.378622-221.904747-54.144758-35.022596-10.57472 10.410346 62.007309 410.101889 21.045337-40.857869-10.777448-17.533215-5.939377-8.651545z" fill="#EBEBEB" p-id="7146"></path><path d="M591.25013 613.503614l-42.008486 6.437978-2.920377-18.94683 42.008487-6.42154z" fill="#446024" p-id="7147"></path><path d="M547.291073 294.048445L489.15203 303.982107l-2.586149-11.802045 58.111648-9.906266z" fill="#8A6651" p-id="7148"></path><path d="M580.752118 203.549663l0.158894 0.69037-0.082187-0.69037z" fill="#8F8F8F" p-id="7149"></path><path d="M408.636221 163.919119l91.808295 93.85201-4.690135-79.951459-33.767875-32.639174 28.622972-5.018883 14.744338 41.142784 13.697824 22.705513 19.122162-68.023394-38.326511-5.988688-9.237813 10.163785-28.622972 5.018883-16.563409-8.065279z" fill="#C3977A" p-id="7150"></path><path d="M442.026037 126.874724l3.402539 10.240493-36.764959 26.803902-4.706573-11.982857z" fill="#8F8F8F" p-id="7151"></path><path d="M495.787256 117.762931l4.070993 12.234897 38.326511 5.994167 2.586149-8.295402z" fill="#8F8F8F" p-id="7152"></path><path d="M490.614957 140.161613l20.820693 29.64757 18.081127 81.589718-29.072261 6.399623-15.768935-80.543204-22.683596-32.025512z" fill="#E8C9B6" p-id="7153"></path><path d="M529.555131 251.398901l-29.110615 6.372228 19.724866 12.004772z" fill="#8F8F8F" p-id="7154"></path><path d="M445.012162 183.890546a10.854156 10.854156 0 0 1 10.854156 10.854155 10.854156 10.854156 0 0 1-10.854156 10.854156 10.854156 10.854156 0 0 1-10.854155-10.854156 10.854156 10.854156 0 0 1 10.854155-10.854155z" fill="#2B2B2B" p-id="7155"></path><path d="M529.544173 164.713592a10.854156 10.854156 0 0 1 10.854155 10.854156 10.854156 10.854156 0 0 1-10.854155 10.854156 10.854156 10.854156 0 0 1-10.854156-10.854156 10.854156 10.854156 0 0 1 10.854156-10.854156z" fill="#2B2B2B" p-id="7156"></path></svg>